<?xml version="1.0" encoding="utf-8"?>
<!-- Generator: Adobe Illustrator 24.0.0, SVG Export Plug-In . SVG Version: 6.00 Build 0)  -->
<svg version="1.2" baseProfile="tiny" id="Layer_1" xmlns="http://www.w3.org/2000/svg" xmlns:xlink="http://www.w3.org/1999/xlink"
	 x="0px" y="0px" viewBox="0 0 150.57 150.57" xml:space="preserve">
<path d="M40.15,20.08V10.04H30.11v10.04v10.04h10.04V20.08z M30.11,40.15V30.11H20.08v10.04v10.04v10.04h10.04V50.19V40.15z
	 M30.11,60.23v10.04h10.04V60.23H30.11z M60.23,80.3v10.04h10.04V80.3H80.3h10.04h10.04v10.04v10.04h10.04V90.34h10.04V80.3h-10.04
	V70.27V60.23h-10.04v10.04H90.34H80.3H70.27H60.23H50.19H40.15V80.3h10.04H60.23z M50.19,100.38h10.04V90.34H50.19V100.38z
	 M130.49,100.38V90.34h-10.04v10.04H130.49z M130.49,120.46v-10.04h-10.04v10.04v10.04h-10.04v10.04h10.04h10.04v-10.04V120.46z
	 M90.34,140.53H80.3H70.27H60.23H50.19H40.15H30.11H20.08v10.04h10.04h10.04h10.04h10.04h10.04H80.3h10.04h10.04h10.04v-10.04
	h-10.04H90.34z M10.04,130.49v10.04h10.04v-10.04H10.04z M10.04,110.42v-10.04H0v10.04v10.04v10.04h10.04v-10.04V110.42z
	 M30.11,100.38v10.04h10.04v-10.04H30.11z M70.27,110.42H60.23H50.19H40.15v10.04h10.04h10.04h10.04H80.3h10.04v-10.04H80.3H70.27z
	 M90.34,110.42h10.04v-10.04H90.34V110.42z M20.08,90.34H10.04v10.04h10.04V90.34z M40.15,90.34V80.3H30.11H20.08v10.04h10.04H40.15
	z M140.53,110.42v-10.04h-10.04v10.04H140.53z M140.53,110.42v10.04v10.04v10.04h10.04v-10.04v-10.04v-10.04H140.53z M130.49,150.57
	h10.04v-10.04h-10.04V150.57z M110.42,60.23h10.04V50.19V40.15h-10.04v10.04V60.23z M100.38,40.15h10.04V30.11V20.08h-10.04v10.04
	V40.15z M40.15,50.19h10.04V40.15V30.11H40.15v10.04V50.19z M60.23,10.04h10.04H80.3h10.04V0H80.3H70.27H60.23H50.19H40.15v10.04
	h10.04H60.23z M100.38,20.08V10.04H90.34v10.04H100.38z M90.34,40.15V30.11H80.3v10.04v10.04h10.04V40.15z"/>
<path fill="#FE6BAA" d="M90.34,50.19v10.04h10.04V50.19H90.34z M30.11,60.23h10.04V50.19H30.11V60.23z"/>
<path fill="#21CB14" d="M110.42,50.19V40.15h-10.04v10.04v10.04h10.04V50.19z M100.38,90.34V80.3H90.34v10.04v10.04h10.04V90.34z
	 M90.34,130.49H80.3H70.27H60.23H50.19H40.15H30.11H20.08v10.04h10.04h10.04h10.04h10.04h10.04H80.3h10.04h10.04h10.04v-10.04
	h-10.04H90.34z M20.08,110.42H10.04v10.04v10.04h10.04v-10.04V110.42z M120.46,100.38V90.34h-10.04v10.04v10.04v10.04v10.04h10.04
	v-10.04v-10.04h10.04v-10.04H120.46z M130.49,110.42v10.04v10.04v10.04h10.04v-10.04v-10.04v-10.04H130.49z M60.23,110.42h10.04
	H80.3h10.04v-10.04H80.3H70.27H60.23H50.19H40.15v10.04h10.04H60.23z M60.23,70.27h10.04H80.3h10.04h10.04V60.23H90.34H80.3H70.27
	H60.23H50.19H40.15v10.04h10.04H60.23z"/>
<path fill="#94FE2B" d="M40.15,40.15L40.15,40.15V30.11H30.11v10.04v0v10.04h10.04V40.15z M90.34,80.3H80.3H70.27v10.04H80.3h10.04
	V80.3z M70.27,90.34H60.23v10.04h10.04H80.3h10.04V90.34H80.3H70.27z M10.04,110.42h10.04v-10.04H10.04V110.42z M100.38,100.38
	v10.04H90.34v10.04H80.3H70.27H60.23H50.19H40.15v-10.04H30.11v-10.04h10.04h10.04V90.34h10.04V80.3H50.19H40.15v10.04H30.11H20.08
	v10.04v10.04v10.04v10.04h10.04v0h10.04h10.04h10.04h10.04H80.3h10.04h10.04h10.04v-10.04v0v-10.04v-10.04H100.38z M50.19,40.15
	L50.19,40.15v10.04H40.15v10.04h10.04h10.04h0h10.04h0H80.3h10.04V50.19H80.3V40.15V30.11h10.04v10.04v10.04h10.04V40.15V30.11
	V20.08H90.34V10.04H80.3H70.27H60.23H50.19H40.15v10.04v10.04h10.04V40.15z"/>
<rect x="40.15" y="10.04" display="none" fill="#94FE2B" width="10.04" height="10.04"/>
</svg>
